<svg version="1.1" id="Layer_1" xmlns="http://www.w3.org/2000/svg" xmlns:xlink="http://www.w3.org/1999/xlink" x="0px" y="0px"
	 width="100%" viewBox="0 0 832 832" enable-background="new 0 0 832 832" xml:space="preserve">
<path fill="#000000" opacity="1.000000" stroke="none" 
	d="
M396.801208,425.008118 
	C396.786713,421.011566 396.870422,417.509399 396.737732,414.015442 
	C396.475311,407.105560 392.867340,403.154755 386.968262,403.139862 
	C380.434357,403.123383 375.510101,407.698303 375.388916,414.337769 
	C375.218689,423.664337 375.175354,433.000183 375.406067,442.323944 
	C375.504913,446.319244 374.068268,447.668610 370.193329,447.411194 
	C366.211700,447.146698 362.198059,447.241638 358.202789,447.346100 
	C355.204681,447.424469 353.947845,446.029633 353.970093,443.158264 
	C353.996674,439.725037 353.976349,436.291412 353.976349,432.175964 
	C338.287262,451.370667 325.792511,454.011475 308.259552,442.363403 
	C306.530579,443.365326 308.007416,445.603821 305.901489,447.253632 
	C295.344940,447.253632 284.048676,447.268585 272.752502,447.240173 
	C270.659821,447.234894 270.114929,445.581268 269.525055,443.967743 
	C268.096222,440.059479 266.517242,436.204224 265.165527,432.270294 
	C264.224609,429.531921 262.589874,428.313080 259.614014,428.352966 
	C250.452591,428.475891 241.287994,428.463715 232.125916,428.373260 
	C229.587143,428.348206 227.971237,429.205139 227.322296,431.697235 
	C227.238663,432.018372 227.134537,432.340698 226.990768,432.638733 
	C224.709534,437.367859 225.076950,444.355499 220.409012,446.620819 
	C216.195145,448.665833 210.298752,447.300232 205.143860,447.322571 
	C203.016754,447.331787 200.811569,447.757294 198.764114,446.711823 
	C197.964096,444.724091 199.124924,443.096039 199.777344,441.473877 
	C211.020218,413.519470 222.390442,385.615967 233.530029,357.620667 
	C235.189529,353.450104 237.392914,351.696503 242.007919,351.839691 
	C259.728455,352.389526 254.989853,349.271698 261.447998,364.807556 
	C269.749268,384.777191 277.688568,404.897278 286.293854,426.216125 
	C286.477844,423.860657 286.642426,422.728729 286.643433,421.596649 
	C286.663757,399.105560 286.780273,376.613464 286.578339,354.124237 
	C286.535278,349.327240 288.047760,347.404236 292.856354,347.851318 
	C295.829163,348.127716 298.867279,348.105408 301.843872,347.846649 
	C306.751862,347.419983 308.215454,349.660278 308.118469,354.300995 
	C307.902679,364.625427 308.068176,374.957825 308.077667,385.286957 
	C308.079315,387.088135 308.077911,388.889313 308.077911,391.441925 
	C327.036255,382.160797 342.386597,384.754486 353.953949,404.078339 
	C353.953949,388.502869 353.954803,374.071869 353.953735,359.640839 
	C353.952728,346.426697 353.430176,347.988373 365.440887,347.920074 
	C376.710663,347.855988 375.278961,347.362946 375.331757,357.914886 
	C375.388214,369.188385 375.344482,380.462372 375.344482,391.518677 
	C377.297638,392.322418 378.085205,391.205719 378.969574,390.578430 
	C386.087311,385.530182 393.805145,385.222076 401.832123,387.702698 
	C412.635284,391.041290 417.864105,397.649902 418.119537,408.946533 
	C418.371796,420.103119 418.104065,431.270630 418.237488,442.431274 
	C418.280518,446.029602 417.023682,447.332947 413.309204,447.416565 
	C396.796692,447.788361 396.799042,447.891541 396.801422,431.501617 
	C396.801697,429.503143 396.801514,427.504669 396.801208,425.008118 
M318.055817,430.643341 
	C319.216431,430.671082 320.379486,430.761200 321.537262,430.716095 
	C327.572906,430.480774 331.877411,426.978790 333.329712,421.166870 
	C334.844818,415.103516 332.362671,409.045288 327.201080,406.208649 
	C320.287231,402.409027 311.749390,405.072052 308.656738,411.992859 
	C305.192902,419.744232 308.678436,427.268585 318.055817,430.643341 
M243.731247,408.703217 
	C247.458755,408.438965 251.263504,409.258057 255.775726,407.899658 
	C252.644547,399.836121 249.625412,392.061096 246.089752,382.955933 
	C242.524170,392.316467 239.560394,400.097107 236.281143,408.705963 
	C239.259949,408.705963 241.047104,408.705963 243.731247,408.703217 
z"/>
<path fill="#000000" opacity="1.000000" stroke="none" 
	d="
M508.275879,399.954407 
	C519.283142,385.150940 532.412842,382.428772 550.653748,391.217316 
	C551.840698,387.473816 554.953857,387.655823 558.112122,387.678284 
	C567.106384,387.742249 576.105713,387.860168 585.094299,387.623871 
	C588.952332,387.522430 591.140320,388.675201 592.679077,392.403503 
	C596.211182,400.961365 600.227783,409.319214 604.521851,418.805695 
	C608.162964,410.796661 611.887146,404.062988 614.301636,396.888519 
	C616.765137,389.568298 620.743958,386.449341 628.539978,387.577545 
	C633.026611,388.226868 637.684143,387.695282 641.955017,387.695282 
	C642.878052,390.483307 641.555664,391.774780 640.804382,393.183624 
	C632.030273,409.638611 623.121826,426.023041 614.490601,442.552338 
	C612.619507,446.135620 610.411316,447.773315 606.325012,447.413208 
	C601.863525,447.019989 597.426147,448.361633 594.643555,442.546234 
	C589.187378,431.143524 582.838135,420.167358 576.823730,409.033447 
	C575.994751,407.498901 575.527344,405.657074 573.199585,404.420624 
	C573.199585,416.239746 573.202881,427.666534 573.198486,439.093353 
	C573.195251,447.338074 573.190674,447.339233 565.101196,447.348450 
	C562.602600,447.351288 560.094727,447.208435 557.607666,447.377136 
	C554.020630,447.620361 551.276001,446.959290 551.602173,442.279572 
	C537.773193,452.683624 519.999451,452.326447 506.362030,433.375885 
	C506.362030,437.276215 506.253815,440.194305 506.390533,443.100861 
	C506.547607,446.440491 504.891388,447.467194 501.821350,447.366241 
	C497.994446,447.240448 494.153748,447.203461 490.330963,447.382965 
	C486.908752,447.543671 485.557495,446.218201 485.617676,442.745544 
	C485.761963,434.419647 485.701782,426.088867 485.613403,417.761230 
	C485.590668,415.619598 485.371613,413.430908 484.872559,411.352753 
	C483.394073,405.196381 480.079071,402.736725 474.246765,403.195496 
	C468.860199,403.619202 464.388794,407.696289 464.209656,413.154022 
	C463.909271,422.305542 464.077301,431.472046 464.022308,440.632080 
	C463.982239,447.311737 463.963715,447.319550 457.345551,447.341492 
	C453.847656,447.353119 450.347412,447.251434 446.852417,447.349670 
	C443.956757,447.431030 442.632111,446.349670 442.646149,443.283142 
	C442.724609,426.126740 442.718231,408.969666 442.655334,391.813141 
	C442.644226,388.782837 443.965027,387.639923 446.877350,387.710175 
	C450.705994,387.802490 454.544983,387.847809 458.368164,387.669708 
	C461.524872,387.522675 463.997803,388.112213 464.589935,392.484192 
	C472.030518,386.820587 479.825989,384.885071 488.418121,387.150848 
	C496.767609,389.352661 503.305878,393.687531 505.934235,402.341888 
	C507.451843,402.131409 507.466339,400.896729 508.275879,399.954407 
M526.640503,422.460846 
	C530.602661,430.295013 538.187134,433.124878 545.302246,429.423767 
	C551.593018,426.151489 554.091064,417.718567 550.700989,411.198792 
	C547.442017,404.930908 538.981567,402.498840 532.539124,406.083710 
	C526.263062,409.575989 525.629883,415.365356 526.640503,422.460846 
z"/>
<path fill="#000000" opacity="1.000000" stroke="none" 
	d="
M418.799744,428.998840 
	C418.791718,416.836243 418.896942,405.171448 418.713928,393.511200 
	C418.647705,389.294342 419.955872,387.312469 424.445129,387.667664 
	C428.087799,387.955872 431.775177,387.825775 435.436066,387.695099 
	C438.808411,387.574707 440.247650,388.947540 440.235352,392.393799 
	C440.175262,409.221161 440.215424,426.049072 440.283722,442.876526 
	C440.296326,445.977539 439.126465,447.481567 435.862122,447.367401 
	C431.701721,447.221954 427.526459,447.178986 423.369324,447.360046 
	C419.752228,447.517609 418.721619,445.724243 418.793610,442.493866 
	C418.890045,438.164185 418.805725,433.830475 418.799744,428.998840 
z"/>
<path fill="#000000" opacity="1.000000" stroke="none" 
	d="
M441.155029,359.316101 
	C443.152924,366.052582 441.482849,371.027344 436.340576,374.446716 
	C432.013092,377.324219 426.032654,376.952576 421.945465,373.552124 
	C417.759888,370.069763 416.297821,364.002411 418.453644,359.061218 
	C420.520203,354.324615 425.762238,351.186127 430.939484,351.740082 
	C435.612122,352.240082 438.907471,354.792633 441.155029,359.316101 
z"/>
<path fill="#000000" opacity="1.000000" stroke="none" 
	d="
M323.450562,464.238220 
	C326.533752,464.157898 329.242096,463.835602 331.811249,464.293732 
	C337.233002,465.260498 339.693542,469.960785 336.887543,474.607086 
	C335.363861,477.130035 337.192657,478.629883 337.201477,480.590454 
	C337.210480,482.590576 339.183472,484.134308 338.266693,486.579254 
	C335.599426,487.443756 334.138031,485.728394 333.952393,483.575775 
	C333.574097,479.189178 330.634857,478.539642 327.351379,478.563995 
	C323.381927,478.593445 324.608002,481.898132 324.284546,484.147980 
	C324.142029,485.139343 324.057465,486.118225 323.086395,486.635773 
	C321.456390,486.878052 320.818054,485.889221 320.800781,484.646515 
	C320.720154,478.841644 320.741028,473.035217 320.747284,467.229370 
	C320.748932,465.706512 321.580688,464.777344 323.450562,464.238220 
M328.508362,474.911255 
	C330.802002,474.802765 333.357178,475.046936 333.608704,471.737427 
	C333.807129,469.126831 332.166412,468.183319 329.914124,468.313202 
	C327.855560,468.431915 324.982239,467.134064 324.421173,470.675720 
	C324.031952,473.132568 324.746399,474.926636 328.508362,474.911255 
z"/>
<path fill="#000000" opacity="1.000000" stroke="none" 
	d="
M506.854553,471.170319 
	C506.855225,470.531586 506.831421,470.361389 506.860107,470.200623 
	C507.268219,467.912964 505.819519,464.961395 508.830872,463.608429 
	C510.202698,462.992096 510.768921,464.174500 511.797180,469.889069 
	C515.328369,469.864716 519.740295,468.546051 521.202698,473.549103 
	C522.525574,478.074646 523.104248,482.670685 520.469604,487.628235 
	C516.671326,484.950684 518.124268,481.707001 517.806580,478.999298 
	C517.538452,476.714508 517.985291,473.752533 514.804443,473.636658 
	C511.380554,473.511963 511.441986,476.477875 511.213074,479.030792 
	C510.977020,481.663391 512.321411,484.738159 508.820801,487.200256 
	C505.126007,482.249207 507.631561,476.675568 506.854553,471.170319 
z"/>
<path fill="#000000" opacity="1.000000" stroke="none" 
	d="
M369.109131,487.424561 
	C363.170776,485.795959 360.639893,481.665344 361.887482,476.226318 
	C363.031036,471.241058 366.417999,469.818634 371.960632,469.741119 
	C378.174164,469.654175 378.601837,472.692291 378.462097,477.542328 
	C378.211304,486.247070 378.416168,486.252960 369.109131,487.424561 
M371.054565,473.566223 
	C367.575592,472.989929 366.187683,475.247925 365.588715,477.996033 
	C365.075287,480.351837 366.383362,482.280670 368.465637,483.267151 
	C370.517670,484.239288 372.354645,483.481628 373.582947,481.528290 
	C375.260101,478.861115 374.763702,476.496002 372.513733,474.412964 
	C372.273560,474.190643 371.970978,474.035706 371.054565,473.566223 
z"/>
<path fill="#000000" opacity="1.000000" stroke="none" 
	d="
M412.016937,469.704834 
	C416.365326,469.930023 417.875397,472.490387 418.214050,475.956329 
	C418.423126,478.096008 418.389038,480.273560 418.283752,482.425293 
	C418.201202,484.111908 418.836456,486.737671 416.213501,486.654083 
	C413.789734,486.576843 414.333282,483.956573 414.138184,482.261841 
	C413.949066,480.618927 414.070007,478.942841 413.950928,477.288757 
	C413.813202,475.375763 413.399750,473.467621 410.953735,473.489929 
	C408.513702,473.512146 407.484070,475.180267 407.319489,477.406891 
	C407.197327,479.059631 407.263367,480.725464 407.213562,482.384521 
	C407.163940,484.038727 407.272308,485.773407 404.726410,487.060120 
	C401.306519,482.791443 402.796387,477.701843 403.188629,473.203278 
	C403.654785,467.857086 409.065643,471.659668 412.016937,469.704834 
z"/>
<path fill="#000000" opacity="1.000000" stroke="none" 
	d="
M418.201599,749.966431 
	C413.234375,754.314392 408.976135,753.097961 407.190460,747.279663 
	C406.316376,744.431396 406.674225,741.721985 407.685181,739.011902 
	C408.793701,736.040405 411.203125,735.150146 414.032318,735.262817 
	C416.904205,735.377075 418.617096,737.228943 419.153931,739.884888 
	C419.815247,743.156738 419.905945,746.480225 418.201599,749.966431 
M411.111664,747.200195 
	C412.148926,748.520813 413.574463,749.381226 414.791077,747.878967 
	C416.475403,745.799133 415.972656,743.212646 415.336578,740.819031 
	C415.065979,739.800537 414.123749,739.175110 413.028656,739.476501 
	C410.943970,740.050232 410.344757,741.720032 410.371490,743.663391 
	C410.384827,744.633484 410.598236,745.600830 411.111664,747.200195 
z"/>
<path fill="#000000" opacity="1.000000" stroke="none" 
	d="
M475.039978,474.306915 
	C475.255035,476.827484 477.288055,476.677948 478.747894,477.172791 
	C481.580231,478.132843 483.574127,479.776031 483.149323,482.941620 
	C482.684540,486.405212 480.030853,487.391754 476.931335,487.404175 
	C473.707489,487.417053 470.609406,487.142944 470.109863,482.827850 
	C473.245880,481.045502 476.085754,485.955078 479.048798,482.864014 
	C478.917603,480.599213 476.969604,480.677643 475.522430,480.094574 
	C472.971161,479.066620 470.563416,477.863281 470.712799,474.516663 
	C470.825867,471.984070 472.414764,470.441620 474.659332,469.972382 
	C477.832977,469.308899 480.912903,469.520996 482.677338,473.183197 
	C480.229340,475.640015 477.360260,471.840515 475.039978,474.306915 
z"/>
<path fill="#000000" opacity="1.000000" stroke="none" 
	d="
M434.287811,740.061890 
	C435.425385,743.246643 434.894836,746.028259 434.039337,748.704346 
	C433.283478,751.068848 431.579285,752.657898 428.954926,752.775757 
	C426.420319,752.889648 424.455292,751.783508 423.287384,749.495667 
	C421.434937,745.866699 421.517670,742.164368 423.171509,738.508789 
	C424.151703,736.342224 426.051880,735.243774 428.338715,735.230652 
	C431.314484,735.213562 433.267487,736.855469 434.287811,740.061890 
M426.282196,747.079651 
	C427.258972,748.406311 428.501923,749.429138 429.890808,747.878601 
	C431.546600,746.029968 431.745911,743.762207 430.805786,741.412170 
	C430.343658,740.256897 429.724091,739.233826 428.350861,739.463440 
	C426.396423,739.790161 425.811432,741.477051 425.564484,743.101440 
	C425.401154,744.175720 425.792267,745.334229 426.282196,747.079651 
z"/>
<path fill="#000000" opacity="1.000000" stroke="none" 
	d="
M448.254089,744.667725 
	C448.886566,748.878418 447.543304,751.595825 443.540222,752.363892 
	C441.178436,752.817078 438.549713,753.207214 438.078796,749.765808 
	C439.056915,748.572632 440.050720,748.815125 441.024261,749.014893 
	C443.020264,749.424377 444.395325,748.668945 444.552338,746.637451 
	C444.710602,744.588989 443.130890,744.196655 441.515076,744.374695 
	C438.748901,744.679382 437.441284,743.618164 437.682159,740.772644 
	C437.898376,738.217834 438.100830,735.615906 441.435852,735.299438 
	C443.656403,735.088745 446.029327,734.577759 447.870514,736.684875 
	C446.939758,739.409058 443.883514,737.926697 442.218506,739.919678 
	C444.320862,741.230164 447.442169,741.346130 448.254089,744.667725 
z"/>
<path fill="#000000" opacity="1.000000" stroke="none" 
	d="
M445.094330,727.288940 
	C446.762360,727.320068 448.223206,726.013550 449.756470,727.825745 
	C447.659241,731.602600 444.507233,731.143616 441.460022,729.526367 
	C438.330688,727.865662 437.563812,722.730286 439.838287,719.850586 
	C442.206696,716.852051 445.305145,716.725403 448.223236,718.726135 
	C451.683380,721.098450 450.544708,723.495789 445.045074,725.759521 
	C444.774597,725.870850 444.454529,726.172852 444.409760,726.430054 
	C444.368439,726.667297 444.666809,726.963745 445.094330,727.288940 
z"/>
<path fill="#000000" opacity="1.000000" stroke="none" 
	d="
M394.974487,748.026306 
	C397.120361,745.399841 399.817596,743.496460 400.013702,740.245972 
	C397.900909,737.905823 395.747070,740.759583 393.563110,739.789062 
	C393.187927,737.127380 394.753143,736.155273 396.796234,735.702820 
	C399.177979,735.175415 401.540558,735.271179 402.962341,737.636902 
	C405.653870,742.115295 401.699554,744.937134 400.090393,748.182373 
	C400.495911,750.390381 403.426971,748.897461 403.853027,751.447327 
	C400.905212,753.944946 397.414093,752.886108 394.365143,751.871460 
	C392.350922,751.201233 393.799622,749.440430 394.974487,748.026306 
z"/>
<path fill="#000000" opacity="1.000000" stroke="none" 
	d="
M401.333130,726.874084 
	C397.988647,731.957886 394.063141,731.970154 391.360657,727.248535 
	C392.057434,726.153137 393.010071,726.505127 393.992249,726.723328 
	C394.892334,726.923218 395.773407,727.774353 397.031464,726.710449 
	C394.851929,724.931274 391.161743,724.255859 391.858307,720.364563 
	C392.158173,718.689331 393.410400,717.881042 394.958069,717.554199 
	C397.379913,717.042664 399.437225,717.439148 400.633759,719.659668 
	C399.540771,722.286743 397.462616,720.041382 396.064392,721.113464 
	C397.781036,723.135864 401.407990,723.091553 401.333130,726.874084 
z"/>
<path fill="#000000" opacity="1.000000" stroke="none" 
	d="
M410.952942,728.414062 
	C410.767548,726.836670 410.670624,725.677124 410.665344,724.517212 
	C410.635101,717.877380 410.951447,717.596252 417.132996,717.504578 
	C422.419769,717.426147 422.248505,721.209290 422.283112,724.733521 
	C422.299927,726.442261 422.891449,728.427185 420.764648,729.956116 
	C418.134857,728.964172 418.957001,726.567444 418.755371,724.638000 
	C418.604218,723.191467 418.939850,721.256409 416.939240,721.065002 
	C414.642517,720.845276 414.531464,722.862305 414.335785,724.515076 
	C414.180389,725.827332 414.347229,727.226929 413.947754,728.449402 
	C413.388062,730.162354 412.262115,730.354980 410.952942,728.414062 
z"/>
<path fill="#000000" opacity="1.000000" stroke="none" 
	d="
M428.802307,723.368103 
	C429.231323,728.065979 432.650604,727.204224 435.892914,727.148804 
	C435.844330,730.483215 433.507782,730.751526 431.550842,730.719666 
	C428.401825,730.668396 426.242096,728.962585 425.593231,725.723999 
	C424.942139,722.474426 425.655945,719.589783 428.760803,718.065063 
	C431.378052,716.779724 434.085327,716.738037 436.210510,719.812683 
	C433.938141,721.778015 430.014587,719.442627 428.802307,723.368103 
z"/>
<path fill="#000000" opacity="1.000000" stroke="none" 
	d="
M446.394196,479.922974 
	C446.200439,482.565796 446.953369,484.962708 445.110992,486.872345 
	C441.765289,484.060638 441.642181,473.492218 444.859833,470.148834 
	C447.597229,472.928497 445.894897,476.394196 446.394196,479.922974 
z"/>
<path fill="#000000" opacity="1.000000" stroke="none" 
	d="
M407.467194,717.960571 
	C406.919739,722.096680 408.282623,726.112183 405.867828,730.778992 
	C402.191254,724.578491 404.656708,719.258362 404.850464,713.915527 
	C408.147003,714.082336 407.328766,716.107056 407.467194,717.960571 
z"/>
</svg>